<svg width="50" height="50" viewBox="0 0 50 50" version="1.1" xmlns="http://www.w3.org/2000/svg" xmlns:xlink="http://www.w3.org/1999/xlink">
<title>book</title>
<desc>Created using Figma</desc>
<g id="Canvas" transform="translate(-1163 -2215)">
<rect x="1163" y="2215" width="50" height="50" fill="#E5E5E5"/>
<clipPath id="clip-0" clip-rule="evenodd">
<path d="M 1163 2215L 1213 2215L 1213 2265L 1163 2265L 1163 2215Z" fill="#FFFFFF"/>
</clipPath>
<g id="book" clip-path="url(#clip-0)">
<path d="M 1163 2215L 1213 2215L 1213 2265L 1163 2265L 1163 2215Z" fill="#FFFFFF"/>
</g>
<g id="Shape">
<use xlink:href="#path0_fill" transform="translate(1163 2216)" fill="#FB6001"/>
</g>
</g>
<defs>
<path id="path0_fill" fill-rule="evenodd" d="M 5 1.00128C 4.99146 0.514465 5.33447 0.0923462 5.8125 0.00128174C 5.84375 -0.000427246 5.875 -0.000427246 5.90625 0.00128174C 5.9375 -0.000427246 5.96875 -0.000427246 6 0.00128174C 13.6333 0.00128174 18.5607 1.54376 21.5938 3.12628C 23.1104 3.9173 24.1405 4.69342 24.8125 5.31378C 24.8621 5.35944 24.8945 5.39313 24.9287 5.42877L 24.9363 5.43658L 24.9435 5.44415C 24.9606 5.46173 24.9786 5.48029 25 5.50128C 25.0214 5.48029 25.0394 5.46173 25.0565 5.44415L 25.0637 5.43658L 25.0713 5.42877C 25.1055 5.39313 25.1379 5.35944 25.1875 5.31378C 25.8595 4.69342 26.8896 3.9173 28.4062 3.12628C 31.4393 1.54376 36.3667 0.00128174 44 0.00128174C 44.5522 0.00128174 45 0.448792 45 1.00128L 45 6.00128L 47.1562 6.00128C 48.7175 6.00128 50 7.28302 50 8.84503L 50 42.1573C 50 43.7193 48.7175 45.001 47.1562 45.001L 30.4688 45.001C 29.9977 45.7325 28.3792 48.001 25 48.001C 21.6208 48.001 20.0023 45.7325 19.5312 45.001L 2.84375 45.001C 1.28247 45.001 0 43.7193 0 42.1573L 0 8.84503C 0 7.28302 1.28247 6.00128 2.84375 6.00128L 5 6.00128L 5 1.00128ZM 20.6562 4.87628C 18.0745 3.52936 13.7391 2.19904 7 2.06378L 7 36.0638C 13.8787 36.1629 18.5549 37.0755 21.4062 38.0638C 22.5797 38.4705 23.2994 38.8663 23.9489 39.2232L 24 39.2513L 24 7.40753C 23.99 7.39362 23.9805 7.37921 23.9698 7.36285C 23.9144 7.27789 23.8279 7.14532 23.4688 6.81378C 22.922 6.30914 22.0146 5.58502 20.6562 4.87628ZM 43 2.06378L 43 36.0638C 36.1213 36.1629 31.4451 37.0755 28.5938 38.0638C 27.4203 38.4705 26.7006 38.8663 26.0511 39.2232L 26 39.2513L 26 7.40753C 26.01 7.39362 26.0195 7.37921 26.0302 7.36285C 26.0856 7.27789 26.1721 7.14532 26.5312 6.81378C 27.078 6.30914 27.9854 5.58502 29.3438 4.87628C 31.9255 3.52936 36.2609 2.19904 43 2.06378ZM 5 8.00128L 2.84375 8.00128C 2.36694 8.00128 2 8.3631 2 8.84503L 2 42.1575C 2 42.6395 2.36694 43.0013 2.84375 43.0013L 20 43.0013C 20.3604 42.9984 20.6946 43.1893 20.875 43.5013C 20.875 43.5013 22.2677 46.0013 25 46.0013C 27.7323 46.0013 29.125 43.5013 29.125 43.5013C 29.3054 43.1893 29.6396 42.9984 30 43.0013L 47.1562 43.0013C 47.6331 43.0013 48 42.6395 48 42.1575L 48 8.84503C 48 8.3631 47.6331 8.00128 47.1562 8.00128L 45 8.00128L 45 37.0013C 45 37.5535 44.5522 38.0013 44 38.0013C 36.6309 38.0013 31.9781 38.9825 29.2188 39.9388C 27.839 40.4171 26.9583 40.8839 26.4062 41.22L 26.2708 41.3023C 26.0427 41.4407 25.9017 41.5262 25.8125 41.595C 25.749 41.6678 25.6753 41.731 25.5938 41.7825C 25.4651 41.8792 25.3151 41.9437 25.1562 41.97L 25.125 41.97C 24.7997 42.0159 24.4727 41.899 24.25 41.6575C 24.1847 41.6011 24.0247 41.4825 23.5938 41.22C 23.0417 40.8839 22.161 40.4171 20.7812 39.9388C 18.0219 38.9825 13.3691 38.0013 6 38.0013C 5.44775 38.0013 5 37.5535 5 37.0013L 5 8.00128Z"/>
</defs>
</svg>
