<svg width="24" height="20" viewBox="0 0 24 20" version="1.1" xmlns="http://www.w3.org/2000/svg" xmlns:xlink="http://www.w3.org/1999/xlink">
<title>hamburger</title>
<desc>Created using Figma</desc>
<g id="Canvas" transform="translate(-3744 -1424)">
<g id="hamburger">
<use xlink:href="#path0_fill" transform="translate(3744 1424)" fill="#FFFFFF"/>
<use xlink:href="#path1_fill" transform="translate(3744 1424)" fill="#FFFFFF"/>
<use xlink:href="#path2_fill" transform="translate(3744 1424)" fill="#FFFFFF"/>
</g>
</g>
<defs>
<path id="path0_fill" d="M 0 2C 0 0.89543 0.89543 0 2 0L 22 0C 23.1046 0 24 0.895431 24 2C 24 3.10457 23.1046 4 22 4L 2 4C 0.89543 4 0 3.10457 0 2Z"/>
<path id="path1_fill" d="M 0 10C 0 8.89543 0.89543 8 2 8L 22 8C 23.1046 8 24 8.89543 24 10C 24 11.1046 23.1046 12 22 12L 2 12C 0.89543 12 0 11.1046 0 10Z"/>
<path id="path2_fill" d="M 0 18C 0 16.8954 0.89543 16 2 16L 22 16C 23.1046 16 24 16.8954 24 18C 24 19.1046 23.1046 20 22 20L 2 20C 0.89543 20 0 19.1046 0 18Z"/>
</defs>
</svg>
