<svg width="50" height="50" viewBox="0 0 50 50" version="1.1" xmlns="http://www.w3.org/2000/svg" xmlns:xlink="http://www.w3.org/1999/xlink">
<title>phone</title>
<desc>Created using Figma</desc>
<g id="Canvas" transform="translate(-1232 -2215)">
<rect x="1232" y="2215" width="50" height="50" fill="#E5E5E5"/>
<clipPath id="clip-0" clip-rule="evenodd">
<path d="M 1232 2215L 1282 2215L 1282 2265L 1232 2265L 1232 2215Z" fill="#FFFFFF"/>
</clipPath>
<g id="phone" clip-path="url(#clip-0)">
<path d="M 1232 2215L 1282 2215L 1282 2265L 1232 2265L 1232 2215Z" fill="#FFFFFF"/>
</g>
<g id="Shape">
<use xlink:href="#path0_stroke" transform="translate(1233 2217)" fill="#FB6001"/>
</g>
</g>
<defs>
<path id="path0_stroke" d="M 9.46218 20.3537L 8.75377 19.6479L 8.24221 20.1613L 8.57098 20.8073L 9.46218 20.3537ZM 26.6658 37.5478L 26.2127 38.4392L 26.8602 38.7684L 27.3734 38.2544L 26.6658 37.5478ZM 32.4099 31.7955L 31.7028 31.0884L 31.7023 31.0889L 32.4099 31.7955ZM 35.0627 31.1558L 35.3731 30.2052L 35.3682 30.2036L 35.0627 31.1558ZM 15.8434 11.938L 16.7948 11.63L 16.794 11.6276L 15.8434 11.938ZM 15.2062 14.5883L 14.4991 13.8812L 14.4978 13.8825L 15.2062 14.5883ZM 8.57098 20.8073C 12.4154 28.3334 18.6816 34.5972 26.2127 38.4392L 27.119 36.6564C 19.8563 32.9785 14.0336 27.158 10.3534 19.9001L 8.57098 20.8073ZM 27.3734 38.2544L 33.1175 32.5021L 31.7023 31.0889L 25.9582 36.8412L 27.3734 38.2544ZM 33.1171 32.5026C 33.5587 32.0609 34.195 31.9276 34.7572 32.108L 35.3682 30.2036C 34.1236 29.8043 32.6972 30.094 31.7028 31.0884L 33.1171 32.5026ZM 34.7523 32.1064C 37.759 33.0853 41.0503 33.6355 44.389 33.6389L 44.389 31.6389C 41.216 31.6424 38.2358 31.1429 35.3731 30.2052L 34.7523 32.1064ZM 44.389 33.6389C 45.2786 33.6389 46 34.359 46 35.25L 48 35.25C 48 33.2532 46.382 31.6389 44.389 31.6389L 44.389 33.6389ZM 46 35.25L 46 44.3889L 48 44.3889L 48 35.25L 46 35.25ZM 46 44.3889C 46 45.28 45.2786 46 44.389 46L 44.389 48C 46.382 48 48 46.3857 48 44.3889L 46 44.3889ZM 44.389 46C 20.427 46 1 26.5746 1 2.61111L -1 2.61111C -1 27.6792 19.3224 48 44.389 48L 44.389 46ZM 1 2.61111C 1 1.72007 1.7214 1 2.61096 1L 2.61096 -1C 0.61802 -1 -1 0.614312 -1 2.61111L 1 2.61111ZM 2.61096 1L 11.7493 1L 11.7493 -1L 2.61096 -1L 2.61096 1ZM 11.7493 1C 12.6409 1 13.3603 1.71941 13.3603 2.61111L 15.3603 2.61111C 15.3603 0.61497 13.7456 -1 11.7493 -1L 11.7493 1ZM 13.3603 2.61111C 13.3637 5.95 13.914 9.24151 14.8928 12.2484L 16.794 11.6276C 15.8563 8.76473 15.3569 5.78436 15.3603 2.61111L 13.3603 2.61111ZM 14.892 12.246C 15.0731 12.8054 14.9392 13.4411 14.4991 13.8812L 15.9134 15.2954C 16.9043 14.3045 17.1985 12.8774 16.7948 11.63L 14.892 12.246ZM 14.4978 13.8825L 8.75377 19.6479L 10.1706 21.0595L 15.9147 15.2941L 14.4978 13.8825Z"/>
</defs>
</svg>
