<svg width="50" height="50" viewBox="0 0 50 50" version="1.1" xmlns="http://www.w3.org/2000/svg" xmlns:xlink="http://www.w3.org/1999/xlink">
<title>shopping-cart</title>
<desc>Created using Figma</desc>
<g id="Canvas" transform="translate(-1017 -2215)">
<rect x="1017" y="2215" width="50" height="50" fill="#E5E5E5"/>
<clipPath id="clip-0" clip-rule="evenodd">
<path d="M 1017 2215L 1067 2215L 1067 2265L 1017 2265L 1017 2215Z" fill="#FFFFFF"/>
</clipPath>
<g id="shopping-cart" clip-path="url(#clip-0)">
<path d="M 1017 2215L 1067 2215L 1067 2265L 1017 2265L 1017 2215Z" fill="#FFFFFF"/>
</g>
<g id="Shape">
<use xlink:href="#path0_fill" transform="translate(1018 2216)" fill="#FB6001"/>
</g>
</g>
<defs>
<path id="path0_fill" fill-rule="evenodd" d="M 1.71875 0.0325317C 1.74945 0.0205688 1.78076 0.0100708 1.8125 0.00128174C 1.84375 -0.000183105 1.875 -0.000183105 1.90625 0.00128174C 1.9375 -0.000427246 1.96875 -0.000427246 2 0.00128174L 8.65625 0.00128174C 10.2046 0.00128174 11.4712 0.377991 12.375 1.18878C 13.2788 1.99933 13.774 3.11945 14.1562 4.40753C 14.1569 4.42828 14.1569 4.44904 14.1562 4.47003L 16.2812 13.0013L 47 13.0013C 47.3275 12.9986 47.6351 13.1575 47.8225 13.4263C 48.0099 13.6949 48.0529 14.0384 47.9375 14.345L 40.75 33.345C 40.6075 33.7398 40.2323 34.0025 39.8125 34.0013L 21.4688 34.0013L 22.1562 36.72L 22.1562 36.7513C 22.4514 37.8675 22.7075 38.7095 23.125 39.1888C 23.5471 39.6732 24.1776 40.0013 25.7188 40.0013L 41 40.0013C 41.3263 40.0018 41.6318 40.1614 41.8186 40.429C 42.0052 40.6966 42.0497 41.0384 41.9375 41.345C 42.5823 42.056 43 42.9732 43 44.0013C 43 46.1985 41.1973 48.0013 39 48.0013C 36.8027 48.0013 35 46.1985 35 44.0013C 35 43.2686 35.2141 42.5938 35.5625 42.0013L 29.4375 42.0013C 29.7859 42.5938 30 43.2686 30 44.0013C 30 46.1985 28.1973 48.0013 26 48.0013C 23.8027 48.0013 22 46.1985 22 44.0013C 22 43.0284 22.3844 42.1658 22.9688 41.47C 22.4413 41.2242 22.0038 40.9002 21.6562 40.5013C 20.8346 39.5579 20.5299 38.4014 20.2324 37.2718L 20.2188 37.22L 12.2188 4.93878C 11.8861 3.83502 11.5045 3.1131 11.0312 2.68878C 10.55 2.25714 9.90295 2.00128 8.65625 2.00128L 4 2.00128C 4 3.10577 3.10455 4.00128 2 4.00128C 0.895447 4.00128 0 3.10577 0 2.00128C 0 0.992493 0.747864 0.169495 1.71875 0.0325317ZM 45.5625 15.0013L 16.7812 15.0013L 21 32.0013L 39.125 32.0013L 45.5625 15.0013ZM 26 42.0013C 27.1165 42.0013 28 42.8848 28 44.0013C 28 45.1177 27.1165 46.0013 26 46.0013C 24.8835 46.0013 24 45.1177 24 44.0013C 24 42.8848 24.8835 42.0013 26 42.0013ZM 41 44.0013C 41 42.8848 40.1165 42.0013 39 42.0013C 37.8835 42.0013 37 42.8848 37 44.0013C 37 45.1177 37.8835 46.0013 39 46.0013C 40.1165 46.0013 41 45.1177 41 44.0013Z"/>
</defs>
</svg>
